# xmcd CD database file
#
# Track frame offsets:
#	150
#	16466
#	33895
#	51018
#	67023
#	84956
#	100105
#	115234
#	132320
#	148466
#	163572
#	178006
#	193004
#	213813
#	225113
#
# Disc length: 3208 seconds
#
# Revision: 0
# Processed by: cddbd v1.5.2PL0 Copyright (c) Steve Scherf et al.
# Submitted via: CDex 1.70beta2
#
DISCID=c50c860f
DTITLE=Wouter Hamel - Hamel Special Edition
DYEAR=2007
DGENRE=Jazz
TTITLE0=1 Details
TTITLE1=Cheap Chardonnay
TTITLE2=3 Just What I Need
TTITLE3=4 Fantastic
TTITLE4=5 Breezy
TTITLE5=6 Ride That Sunbeam
TTITLE6=7 A Distant Melody
TTITLE7=8 Nothing's Any Good
TTITLE8=9 Interpretation Of Love
TTITLE9=10 Don't Ask
TTITLE10=11 Would You
TTITLE11=12 Useless Fraud
TTITLE12=As Long As We're In Love
TTITLE13=While I'll Be Gone
TTITLE14=Maybe I'll Enjoy It Next Year
EXTD=YEAR: 2007
EXTT0=
EXTT1=
EXTT2=
EXTT3=
EXTT4=
EXTT5=
EXTT6=
EXTT7=
EXTT8=
EXTT9=
EXTT10=
EXTT11=
EXTT12=
EXTT13=
EXTT14=
PLAYORDER=
